<svg width="248" height="248" viewBox="0 0 248 248" fill="none" xmlns="http://www.w3.org/2000/svg">
<path d="M100.127 124H146L132.5 180.5L142 202H93L110 145L100.127 124Z" fill="#C4C4C4"/>
<path d="M124 46C130.547 46 136.925 48.0725 142.221 51.9205C147.518 55.7684 151.46 61.1943 153.483 67.4205C155.506 73.6466 155.506 80.3534 153.483 86.5795C151.46 92.8057 147.518 98.2316 142.221 102.08C136.925 105.927 130.547 108 124 108C117.453 108 111.075 105.927 105.779 102.08C100.482 98.2316 96.5402 92.8057 94.5172 86.5795C92.4943 80.3534 92.4943 73.6466 94.5172 67.4205L106.31 71.2523C105.097 74.988 105.097 79.012 106.31 82.7477C107.524 86.4834 109.889 89.7389 113.067 92.0477C116.245 94.3565 120.072 95.6 124 95.6C127.928 95.6 131.755 94.3565 134.933 92.0477C138.111 89.7389 140.476 86.4834 141.69 82.7477C142.903 79.012 142.903 74.988 141.69 71.2523C140.476 67.5166 138.111 64.2611 134.933 61.9523C131.755 59.6435 127.928 58.4 124 58.4V46Z" fill="#306F1A"/>
</svg>
